# xmcd
#
# Track frame offsets: 
#        150
#        11874
#        22567
#        36427
#        47748
#        58979
#        73929
#        86487
#        98846
#        106956
#        115226
#
# Disc length: 1704 seconds
#
# Revision: 0
# Processed by: cddbd v1.5.2PL0 Copyright (c) Steve Scherf et al.
# Submitted via: ExactAudioCopy v1.0b1
#
DISCID=9006a60b
DTITLE=Johnny Cash and June Carter - Carryin' On With
DYEAR=1967
DGENRE=Country
TTITLE0=Long-Legged Guitar Pickin' Man
TTITLE1=Shantytown
TTITLE2=It Ain't Me, Babe
TTITLE3=Fast Boat To Sydney
TTITLE4=Pack Up Your Sorrows
TTITLE5=I Got A Woman
TTITLE6=Jackson
TTITLE7=Oh, What A Good Thing We Had
TTITLE8=You'll Be All Right
TTITLE9=No, No, No
TTITLE10=What'd I Say
EXTD=
EXTT0=
EXTT1=
EXTT2=
EXTT3=
EXTT4=
EXTT5=
EXTT6=
EXTT7=
EXTT8=
EXTT9=
EXTT10=
PLAYORDER=
